<?xml version="1.0" standalone="no"?>
<!DOCTYPE svg PUBLIC "-//W3C//DTD SVG 20010904//EN"
 "http://www.w3.org/TR/2001/REC-SVG-20010904/DTD/svg10.dtd">
<svg version="1.0" xmlns="http://www.w3.org/2000/svg"
 width="181.000000pt" height="181.000000pt" viewBox="0 0 181.000000 181.000000"
 preserveAspectRatio="xMidYMid meet">
<metadata>
Created by potrace 1.14, written by Peter Selinger 2001-2017
</metadata>
<g transform="translate(0.000000,181.000000) scale(0.100000,-0.100000)"
fill="#000000" stroke="none">
<path d="M847 1804 c-1 -1 -28 -5 -60 -8 -32 -4 -64 -9 -70 -11 -7 -3 -23 -6
-37 -9 -70 -12 -231 -87 -310 -145 -57 -42 -172 -162 -211 -221 -107 -162
-152 -310 -153 -500 0 -120 9 -184 40 -276 187 -574 848 -807 1353 -477 80 52
219 197 267 278 92 157 128 292 127 475 0 93 -5 144 -20 200 -11 41 -22 82
-24 90 -10 39 -100 203 -141 256 -145 187 -364 312 -597 340 -48 6 -160 11
-164 8z m92 -716 c57 -69 151 -243 151 -281 0 -30 -224 -44 -343 -22 -35 7
-38 10 -33 34 20 86 166 318 191 303 5 -3 20 -19 34 -34z"/>
</g>
</svg>
